<svg xmlns="http://www.w3.org/2000/svg" viewBox="0 0 512 512"><title>File_Export</title><g id="File_Export" data-name="File Export"><g id="File_Export-2" data-name="File Export"><path d="M256,73.8206a182.1794,182.1794,0,1,0,0,364.3588c100.6083,0,182.18-81.5707,182.18-182.18A182.1826,182.1826,0,0,0,256,73.8206Zm-47.4083,98.964,38.5226-38.5136a12.8019,12.8019,0,0,1,9.1054-3.77h.1934a12.8544,12.8544,0,0,1,9.1224,3.77l38.5056,38.5136a12.8959,12.8959,0,1,1-18.2376,18.2376l-17.0154-17.0244v69.0993a12.9024,12.9024,0,1,1-25.8048,0v-68.22l-16.146,16.145a12.8988,12.8988,0,1,1-18.2456-18.2376Zm146.4875,155.259c0,17.4115-17.0775,31.0518-38.8835,31.0518H195.8035c-21.7971,0-38.8737-13.64-38.8737-31.0518V244.2311c0-17.41,17.0766-31.0517,38.8737-31.0517h16.2594a32.5486,32.5486,0,0,0,5.66.5273,32.2028,32.2028,0,0,0,5.6169-.5273h.747v25.1982H195.8035c-8.8245,0-13.6755,4.3946-13.6755,5.8535v83.8125c0,1.459,4.851,5.8446,13.6755,5.8446H316.2047c8.8244,0,13.6763-4.3937,13.6763-5.8446V244.2311c0-1.4589-4.8519-5.8535-13.6763-5.8535h-28.52V213.1794h1.74a29.75,29.75,0,0,0,11.1537,0h15.6268c21.797,0,38.8745,13.6412,38.8745,31.0517v83.8125Z"/></g></g></svg>