<?xml version="1.0" encoding="UTF-8"?>
<!DOCTYPE svg PUBLIC "-//W3C//DTD SVG 1.1//EN" "http://www.w3.org/Graphics/SVG/1.1/DTD/svg11.dtd">
<!-- Creator: CorelDRAW -->
<svg xmlns="http://www.w3.org/2000/svg" xml:space="preserve" width="6.82666in" height="6.82666in" style="shape-rendering:geometricPrecision; text-rendering:geometricPrecision; image-rendering:optimizeQuality; fill-rule:evenodd; clip-rule:evenodd"
viewBox="0 0 6.82666 6.82666"
 xmlns:xlink="http://www.w3.org/1999/xlink">
 <defs>
  <style type="text/css">
   <![CDATA[
    .fil2 {fill:none}
    .fil6 {fill:#424242}
    .fil8 {fill:#5D4037}
    .fil7 {fill:#8F6353}
    .fil5 {fill:#B2DFDB}
    .fil4 {fill:#EDE7F6}
    .fil1 {fill:#FF8A65}
    .fil0 {fill:#FFAB91}
    .fil3 {fill:#424242;fill-rule:nonzero}
   ]]>
  </style>
   <clipPath id="id0">
    <path d="M3.41333 0c1.88513,0 3.41333,1.5282 3.41333,3.41333 0,1.88513 -1.5282,3.41333 -3.41333,3.41333 -1.88513,0 -3.41333,-1.5282 -3.41333,-3.41333 0,-1.88513 1.5282,-3.41333 3.41333,-3.41333z"/>
   </clipPath>
 </defs>
 <g id="Layer_x0020_1">
  <metadata id="CorelCorpID_0Corel-Layer"/>
  <path class="fil0" d="M3.41333 0c1.88513,0 3.41333,1.5282 3.41333,3.41333 0,1.88513 -1.5282,3.41333 -3.41333,3.41333 -1.88513,0 -3.41333,-1.5282 -3.41333,-3.41333 0,-1.88513 1.5282,-3.41333 3.41333,-3.41333z"/>
  <g style="clip-path:url(#id0)">
   <g id="_328325352">
    <g>
     <polygon id="_3305512881" class="fil1" points="4.12698,2.25344 7.91325,6.03972 7.91325,6.68362 4.12698,2.89735 "/>
     <polygon id="_330551408" class="fil1" points="4.36486,2.89735 8.15113,6.68362 8.15113,6.8377 4.36486,3.05143 "/>
     <polygon id="_330553424" class="fil1" points="4.36486,3.05143 8.15113,6.8377 8.15113,7.51778 4.36486,3.73151 "/>
     <polygon id="_330553016" class="fil1" points="4.36486,3.73151 8.15113,7.51778 8.15086,7.53813 8.15007,7.55836 8.14876,7.57846 8.14693,7.59842 8.14459,7.61823 8.14176,7.63789 8.13843,7.65739 8.13461,7.67673 8.13031,7.6959 8.12554,7.71489 8.1203,7.7337 8.1146,7.75231 8.10844,7.77074 8.10183,7.78896 8.09478,7.80697 8.08729,7.82477 8.07937,7.84235 8.07104,7.8597 8.06228,7.87681 8.05311,7.89369 8.04354,7.91032 8.03357,7.9267 8.02322,7.94282 8.01248,7.95868 8.00136,7.97426 7.98987,7.98957 7.97801,8.00459 7.9658,8.01932 7.95323,8.03376 7.94032,8.04789 7.92707,8.06172 7.91349,8.07522 4.12722,4.28895 4.1408,4.27544 4.15405,4.26162 4.16696,4.24748 4.17953,4.23305 4.19174,4.21832 4.2036,4.2033 4.21509,4.18799 4.22621,4.17241 4.23695,4.15655 4.24731,4.14043 4.25728,4.12405 4.26685,4.10742 4.27601,4.09054 4.28477,4.07343 4.29311,4.05607 4.30102,4.0385 4.30851,4.0207 4.31556,4.00269 4.32217,3.98447 4.32833,3.96604 4.33403,3.94743 4.33928,3.92862 4.34405,3.90963 4.34835,3.89046 4.35217,3.87112 4.35549,3.85162 4.35833,3.83196 4.36066,3.81215 4.36249,3.79219 4.3638,3.77209 4.36459,3.75186 "/>
     <polygon id="_330553208" class="fil1" points="4.12722,4.28895 7.91349,8.07522 7.89985,8.08815 7.88591,8.10077 7.87167,8.11306 7.85713,8.12502 7.8423,8.13665 7.82719,8.14794 7.8118,8.15888 7.79613,8.16946 7.78021,8.17969 7.76402,8.18955 7.74759,8.19904 7.73091,8.20815 7.71399,8.21688 7.69683,8.22521 7.67945,8.23315 7.66185,8.24069 7.64404,8.24781 7.62602,8.25453 7.6078,8.26082 7.58938,8.26669 7.57078,8.27211 7.55199,8.27711 7.53303,8.28165 7.5139,8.28574 7.4946,8.28937 7.47515,8.29254 7.45555,8.29524 7.43581,8.29746 7.41593,8.2992 7.39591,8.30045 7.37578,8.30121 7.35552,8.30146 3.56925,4.51519 3.58951,4.51494 3.60965,4.51418 3.62966,4.51293 3.64954,4.51119 3.66928,4.50897 3.68889,4.50627 3.70833,4.5031 3.72763,4.49947 3.74676,4.49538 3.76572,4.49083 3.78451,4.48584 3.80311,4.48041 3.82153,4.47455 3.83975,4.46826 3.85777,4.46154 3.87559,4.45442 3.89319,4.44688 3.91057,4.43894 3.92772,4.43061 3.94464,4.42188 3.96132,4.41277 3.97776,4.40328 3.99394,4.39342 4.00987,4.38319 4.02553,4.37261 4.04092,4.36167 4.05603,4.35038 4.07086,4.33875 4.0854,4.32679 4.09965,4.3145 4.11359,4.30188 "/>
     <polygon id="_330553352" class="fil1" points="3.56925,4.51519 7.35552,8.30146 7.27889,8.30146 3.49263,4.51519 "/>
     <polygon id="_330553400" class="fil1" points="3.33404,4.51519 7.1203,8.30146 7.04368,8.30146 3.25741,4.51519 "/>
     <polygon id="_330552872" class="fil1" points="3.25741,4.51519 7.04368,8.30146 7.02342,8.30121 7.00328,8.30045 6.98327,8.2992 6.96339,8.29746 6.94365,8.29524 6.92404,8.29254 6.90459,8.28937 6.8853,8.28574 6.86617,8.28165 6.84721,8.27711 6.82842,8.27211 6.80981,8.26669 6.7914,8.26082 6.77318,8.25453 6.75516,8.24782 6.73734,8.24069 6.71974,8.23315 6.70237,8.22522 6.68521,8.21688 6.66829,8.20815 6.65161,8.19904 6.63517,8.18956 6.61899,8.17969 6.60306,8.16947 6.5874,8.15888 6.57201,8.14794 6.5569,8.13665 6.54207,8.12503 6.52753,8.11306 6.51328,8.10077 6.49934,8.08816 2.71307,4.30189 2.72702,4.3145 2.74126,4.32679 2.7558,4.33876 2.77063,4.35038 2.78574,4.36167 2.80113,4.37261 2.8168,4.3832 2.83272,4.39342 2.84891,4.40328 2.86534,4.41277 2.88202,4.42188 2.89894,4.43061 2.9161,4.43894 2.93348,4.44688 2.95107,4.45442 2.96889,4.46155 2.98691,4.46826 3.00513,4.47455 3.02355,4.48041 3.04215,4.48584 3.06094,4.49083 3.0799,4.49538 3.09903,4.49947 3.11833,4.5031 3.13778,4.50627 3.15738,4.50897 3.17712,4.51119 3.197,4.51293 3.21702,4.51418 3.23715,4.51494 "/>
     <polygon id="_330552968" class="fil1" points="3.49263,4.51519 7.27889,8.30146 7.27889,8.88617 3.49263,5.0999 "/>
     <polygon id="_330554048" class="fil1" points="3.88909,5.23843 7.67536,9.0247 7.67536,9.06627 3.88909,5.28 "/>
     <polygon id="_330553736" class="fil1" points="3.88909,5.28 7.67536,9.06627 6.72383,9.06627 2.93757,5.28 "/>
     <polygon id="_330553904" class="fil1" points="3.93897,1.74056 7.72524,5.52683 7.73552,5.53858 3.94925,1.75231 "/>
     <polygon id="_330553592" class="fil1" points="3.94925,1.75231 7.73552,5.53858 7.74568,5.55076 7.75559,5.56321 7.76524,5.57595 7.77464,5.58895 7.78378,5.60222 7.79264,5.61575 7.80124,5.62953 7.80955,5.64356 7.81759,5.65783 7.82533,5.67233 7.83279,5.68707 7.83994,5.70203 7.8468,5.71721 7.85335,5.73261 7.85959,5.74821 7.8655,5.76401 7.87111,5.78001 7.87638,5.7962 7.88132,5.81258 7.88593,5.82913 7.89019,5.84586 7.89411,5.86276 7.89769,5.87982 7.9009,5.89704 7.90375,5.9144 7.90624,5.93191 7.90836,5.94956 7.91011,5.96735 7.91148,5.98526 7.91246,6.0033 7.91305,6.02145 7.91325,6.03972 4.12698,2.25344 4.12678,2.23518 4.12619,2.21703 4.12521,2.19899 4.12384,2.18108 4.12209,2.16329 4.11998,2.14564 4.11748,2.12813 4.11463,2.11076 4.11142,2.09355 4.10785,2.07649 4.10393,2.05959 4.09966,2.04286 4.09505,2.02631 4.09011,2.00993 4.08484,1.99374 4.07924,1.97774 4.07332,1.96194 4.06708,1.94633 4.06053,1.93094 4.05368,1.91576 4.04652,1.9008 4.03906,1.88606 4.03132,1.87156 4.02328,1.85729 4.01497,1.84326 4.00637,1.82948 3.99751,1.81595 3.98837,1.80268 3.97898,1.78968 3.96932,1.77694 3.95941,1.76448 "/>
    </g>
    <path id="_328325328" class="fil1" d="M4.12698 2.25344l0 0.643906 0.10263 0 0.135248 0 0 0.154083 0 0.680075c0,0.217776 -0.0910118,0.415051 -0.237638,0.557445 -0.14374,0.139591 -0.341295,0.226236 -0.557969,0.226236l-0.076626 0 0 0.584709 0.396469 0.138535 0 0.041563 -0.951528 0 0 -0.041563 0.396469 -0.138535 0 -0.584709 -0.076626 0c-0.216669,0 -0.414228,-0.0866417 -0.557969,-0.226232 -0.146622,-0.142398 -0.237638,-0.339673 -0.237638,-0.557449l3.93701e-006 -0.680075 0 -0.154083 0.135244 0 0.102634 0 0 -0.643906c0,-0.195394 0.0680709,-0.372776 0.177724,-0.501138 0.108402,-0.126882 0.257602,-0.205646 0.421433,-0.205646l0.22898 0c0.163831,0 0.313031,0.0787638 0.421429,0.205646 0.109657,0.128366 0.177728,0.305744 0.177728,0.501138z"/>
   </g>
  </g>
  <path class="fil2" d="M3.41333 0c1.88513,0 3.41333,1.5282 3.41333,3.41333 0,1.88513 -1.5282,3.41333 -3.41333,3.41333 -1.88513,0 -3.41333,-1.5282 -3.41333,-3.41333 0,-1.88513 1.5282,-3.41333 3.41333,-3.41333z"/>
  <polygon class="fil3" points="2.93757,5.23843 3.33404,5.0999 3.33404,4.40393 3.49263,4.40393 3.49263,5.0999 3.88909,5.23843 3.88909,5.28 2.93757,5.28 "/>
  <path class="fil4" d="M3.94925 1.75231c0.109657,0.128366 0.177728,0.305744 0.177728,0.501138l0 0.672839 -1.4273 0 0 -0.672839c0,-0.195394 0.0680709,-0.372776 0.177724,-0.501138 0.108402,-0.126882 0.257602,-0.205646 0.421433,-0.205646l0.22898 0c0.163831,0 0.313031,0.0787638 0.421429,0.205646z"/>
  <path class="fil5" d="M4.12049 3.63672c-0.0194094,0.153803 -0.0813425,0.291772 -0.171236,0.396843 -0.108398,0.126705 -0.257598,0.20535 -0.421429,0.20535l-0.22898 0c-0.163831,0 -0.313031,-0.0786457 -0.421433,-0.205346 -0.0898937,-0.105083 -0.151831,-0.243055 -0.171236,-0.39687l0 -0.610122 1.41431 0 0 0.610146z"/>
  <path class="fil6" d="M3.77016 4.1782c-0.0255591,0.0134291 -0.0520394,0.024811 -0.0792953,0.0339606l0 -1.16073 0.0792953 0 0 1.12677z"/>
  <polygon class="fil7" points="3.45298,4.23892 3.37368,4.23892 3.37368,3.05143 3.45298,3.05143 "/>
  <path class="fil6" d="M3.1358 4.21216c-0.0272598,-0.00914567 -0.0537402,-0.0205315 -0.0792953,-0.0339606l0 -1.12677 0.0792953 0 0 1.16073z"/>
  <path class="fil3" d="M2.46181 2.89735l1.90305 0 0 0.154083 0 0 0 0.680075c0,0.217776 -0.0910118,0.415051 -0.237638,0.557445 -0.14374,0.139591 -0.341295,0.226236 -0.557969,0.226236l-0.311843 0c-0.216669,0 -0.414228,-0.0866417 -0.557969,-0.226232 -0.146622,-0.142398 -0.237638,-0.339673 -0.237638,-0.557449l0 -0.680075 3.93701e-006 0 0 -0.154083zm1.76712 0.154083l-1.63119 0 0 0.680075c0,0.170878 0.0727126,0.326925 0.18985,0.440681 0.120024,0.116563 0.286295,0.188917 0.469823,0.188917l0.311843 0c0.183524,0 0.349795,-0.0723543 0.469823,-0.188921 0.117138,-0.113752 0.18985,-0.269807 0.18985,-0.440677l0 -0.680075z"/>
  <polygon class="fil3" points="2.59705,2.89735 4.22961,2.89735 4.22961,3.05143 2.59705,3.05143 "/>
  <path class="fil8" d="M2.91585 2.6763c0.033374,0 0.0604291,0.0270591 0.0604291,0.0604331 0,0.033378 -0.0270551,0.0604331 -0.0604291,0.0604331 -0.033378,0 -0.0604331,-0.0270551 -0.0604331,-0.0604331 0,-0.033374 0.0270551,-0.0604331 0.0604331,-0.0604331z"/>
  <path class="fil8" d="M2.91585 2.43457c0.033374,0 0.0604291,0.0270591 0.0604291,0.0604331 0,0.033378 -0.0270551,0.0604331 -0.0604291,0.0604331 -0.033378,0 -0.0604331,-0.0270551 -0.0604331,-0.0604331 0,-0.033374 0.0270551,-0.0604331 0.0604331,-0.0604331z"/>
  <path class="fil8" d="M2.91585 2.19283c0.033374,0 0.0604291,0.0270591 0.0604291,0.0604331 0,0.033378 -0.0270551,0.0604331 -0.0604291,0.0604331 -0.033378,0 -0.0604331,-0.0270551 -0.0604331,-0.0604331 0,-0.033374 0.0270551,-0.0604331 0.0604331,-0.0604331z"/>
  <path class="fil8" d="M3.12164 2.2707c0.033378,0 0.0604331,0.0270591 0.0604331,0.0604331 0,0.033378 -0.0270551,0.0604331 -0.0604331,0.0604331 -0.033374,0 -0.0604291,-0.0270551 -0.0604291,-0.0604331 0,-0.033374 0.0270551,-0.0604331 0.0604291,-0.0604331z"/>
  <path class="fil8" d="M3.12164 2.02896c0.033378,0 0.0604331,0.0270591 0.0604331,0.0604331 0,0.033378 -0.0270551,0.0604331 -0.0604331,0.0604331 -0.033374,0 -0.0604291,-0.0270551 -0.0604291,-0.0604331 0,-0.033374 0.0270551,-0.0604331 0.0604291,-0.0604331z"/>
  <path class="fil8" d="M3.12164 1.78723c0.033378,0 0.0604331,0.0270591 0.0604331,0.0604331 0,0.033378 -0.0270551,0.0604331 -0.0604331,0.0604331 -0.033374,0 -0.0604291,-0.0270551 -0.0604291,-0.0604331 0,-0.033374 0.0270551,-0.0604331 0.0604291,-0.0604331z"/>
  <path class="fil8" d="M3.12164 2.48727c0.033378,0 0.0604331,0.0270551 0.0604331,0.0604291 0,0.033378 -0.0270551,0.0604331 -0.0604331,0.0604331 -0.033374,0 -0.0604291,-0.0270551 -0.0604291,-0.0604331 0,-0.033374 0.0270551,-0.0604291 0.0604291,-0.0604291z"/>
  <path class="fil8" d="M3.91081 2.6763c0.033374,0 0.0604291,0.0270591 0.0604291,0.0604331 0,0.033378 -0.0270551,0.0604331 -0.0604291,0.0604331 -0.033378,0 -0.0604331,-0.0270551 -0.0604331,-0.0604331 0,-0.033374 0.0270551,-0.0604331 0.0604331,-0.0604331z"/>
  <path class="fil8" d="M3.91081 2.43457c0.033374,0 0.0604291,0.0270591 0.0604291,0.0604331 0,0.033378 -0.0270551,0.0604331 -0.0604291,0.0604331 -0.033378,0 -0.0604331,-0.0270551 -0.0604331,-0.0604331 0,-0.033374 0.0270551,-0.0604331 0.0604331,-0.0604331z"/>
  <path class="fil8" d="M3.91081 2.19283c0.033374,0 0.0604291,0.0270591 0.0604291,0.0604331 0,0.033378 -0.0270551,0.0604331 -0.0604291,0.0604331 -0.033378,0 -0.0604331,-0.0270551 -0.0604331,-0.0604331 0,-0.033374 0.0270551,-0.0604331 0.0604331,-0.0604331z"/>
  <path class="fil8" d="M3.32782 2.2707c0.033378,0 0.0604331,0.0270591 0.0604331,0.0604331 0,0.033378 -0.0270551,0.0604331 -0.0604331,0.0604331 -0.033374,0 -0.0604331,-0.0270551 -0.0604331,-0.0604331 0,-0.033374 0.0270591,-0.0604331 0.0604331,-0.0604331z"/>
  <path class="fil8" d="M3.32782 2.02896c0.033378,0 0.0604331,0.0270591 0.0604331,0.0604331 0,0.033378 -0.0270551,0.0604331 -0.0604331,0.0604331 -0.033374,0 -0.0604331,-0.0270551 -0.0604331,-0.0604331 0,-0.033374 0.0270591,-0.0604331 0.0604331,-0.0604331z"/>
  <path class="fil8" d="M3.32782 1.78723c0.033378,0 0.0604331,0.0270591 0.0604331,0.0604331 0,0.033378 -0.0270551,0.0604331 -0.0604331,0.0604331 -0.033374,0 -0.0604331,-0.0270551 -0.0604331,-0.0604331 0,-0.033374 0.0270591,-0.0604331 0.0604331,-0.0604331z"/>
  <path class="fil8" d="M3.32782 2.48727c0.033378,0 0.0604331,0.0270551 0.0604331,0.0604291 0,0.033378 -0.0270551,0.0604331 -0.0604331,0.0604331 -0.033374,0 -0.0604331,-0.0270551 -0.0604331,-0.0604331 0,-0.033374 0.0270591,-0.0604291 0.0604331,-0.0604291z"/>
  <path class="fil8" d="M3.534 2.2707c0.033378,0 0.0604331,0.0270591 0.0604331,0.0604331 0,0.033378 -0.0270551,0.0604331 -0.0604331,0.0604331 -0.033374,0 -0.0604331,-0.0270551 -0.0604331,-0.0604331 0,-0.033374 0.0270591,-0.0604331 0.0604331,-0.0604331z"/>
  <path class="fil8" d="M3.534 2.02896c0.033378,0 0.0604331,0.0270591 0.0604331,0.0604331 0,0.033378 -0.0270551,0.0604331 -0.0604331,0.0604331 -0.033374,0 -0.0604331,-0.0270551 -0.0604331,-0.0604331 0,-0.033374 0.0270591,-0.0604331 0.0604331,-0.0604331z"/>
  <path class="fil8" d="M3.534 1.78723c0.033378,0 0.0604331,0.0270591 0.0604331,0.0604331 0,0.033378 -0.0270551,0.0604331 -0.0604331,0.0604331 -0.033374,0 -0.0604331,-0.0270551 -0.0604331,-0.0604331 0,-0.033374 0.0270591,-0.0604331 0.0604331,-0.0604331z"/>
  <path class="fil8" d="M3.534 2.48727c0.033378,0 0.0604331,0.0270551 0.0604331,0.0604291 0,0.033378 -0.0270551,0.0604331 -0.0604331,0.0604331 -0.033374,0 -0.0604331,-0.0270551 -0.0604331,-0.0604331 0,-0.033374 0.0270591,-0.0604291 0.0604331,-0.0604291z"/>
  <path class="fil8" d="M3.74019 2.2707c0.033378,0 0.0604331,0.0270591 0.0604331,0.0604331 0,0.033378 -0.0270551,0.0604331 -0.0604331,0.0604331 -0.033374,0 -0.0604331,-0.0270551 -0.0604331,-0.0604331 0,-0.033374 0.0270591,-0.0604331 0.0604331,-0.0604331z"/>
  <path class="fil8" d="M3.74019 2.02896c0.033378,0 0.0604331,0.0270591 0.0604331,0.0604331 0,0.033378 -0.0270551,0.0604331 -0.0604331,0.0604331 -0.033374,0 -0.0604331,-0.0270551 -0.0604331,-0.0604331 0,-0.033374 0.0270591,-0.0604331 0.0604331,-0.0604331z"/>
  <path class="fil8" d="M3.74019 1.78723c0.033378,0 0.0604331,0.0270591 0.0604331,0.0604331 0,0.033378 -0.0270551,0.0604331 -0.0604331,0.0604331 -0.033374,0 -0.0604331,-0.0270551 -0.0604331,-0.0604331 0,-0.033374 0.0270591,-0.0604331 0.0604331,-0.0604331z"/>
  <path class="fil8" d="M3.74019 2.48727c0.033378,0 0.0604331,0.0270551 0.0604331,0.0604291 0,0.033378 -0.0270551,0.0604331 -0.0604331,0.0604331 -0.033374,0 -0.0604331,-0.0270551 -0.0604331,-0.0604331 0,-0.033374 0.0270591,-0.0604291 0.0604331,-0.0604291z"/>
  <path class="fil8" d="M3.12164 2.6763c0.033378,0 0.0604331,0.0270591 0.0604331,0.0604331 0,0.033378 -0.0270551,0.0604331 -0.0604331,0.0604331 -0.033374,0 -0.0604291,-0.0270551 -0.0604291,-0.0604331 0,-0.033374 0.0270551,-0.0604331 0.0604291,-0.0604331z"/>
  <path class="fil8" d="M3.32782 2.6763c0.033378,0 0.0604331,0.0270591 0.0604331,0.0604331 0,0.033378 -0.0270551,0.0604331 -0.0604331,0.0604331 -0.033374,0 -0.0604331,-0.0270551 -0.0604331,-0.0604331 0,-0.033374 0.0270591,-0.0604331 0.0604331,-0.0604331z"/>
  <path class="fil8" d="M3.534 2.6763c0.033378,0 0.0604331,0.0270591 0.0604331,0.0604331 0,0.033378 -0.0270551,0.0604331 -0.0604331,0.0604331 -0.033374,0 -0.0604331,-0.0270551 -0.0604331,-0.0604331 0,-0.033374 0.0270591,-0.0604331 0.0604331,-0.0604331z"/>
  <path class="fil8" d="M3.74019 2.6763c0.033378,0 0.0604331,0.0270591 0.0604331,0.0604331 0,0.033378 -0.0270551,0.0604331 -0.0604331,0.0604331 -0.033374,0 -0.0604331,-0.0270551 -0.0604331,-0.0604331 0,-0.033374 0.0270591,-0.0604331 0.0604331,-0.0604331z"/>
  <polygon class="fil3" points="3.45298,3.05143 3.45298,4.23892 3.37368,4.23892 3.37368,3.05143 "/>
 </g>
</svg>
